<?xml version="1.0" standalone="no"?>
<!DOCTYPE svg PUBLIC "-//W3C//DTD SVG 20010904//EN"
 "http://www.w3.org/TR/2001/REC-SVG-20010904/DTD/svg10.dtd">
<svg version="1.0" xmlns="http://www.w3.org/2000/svg"
 width="204.000000pt" height="192.000000pt" viewBox="0 0 204.000000 192.000000"
 preserveAspectRatio="xMidYMid meet">

<g transform="translate(0.000000,192.000000) scale(0.100000,-0.100000)"
fill="#000000" stroke="none">
<path d="M1031 1888 c4 -30 -2 -68 -9 -68 -5 0 -15 12 -22 28 l-13 27 -11 -38
-12 -38 -29 31 c-36 38 -43 38 -37 0 2 -16 2 -30 -2 -30 -3 0 -30 15 -59 34
l-54 35 5 -50 5 -50 -34 20 c-37 23 -60 28 -41 9 7 -7 12 -18 12 -25 0 -13
-37 -12 -94 4 -18 5 -18 4 2 -24 12 -17 19 -33 15 -37 -3 -3 -31 -6 -61 -6
-53 0 -54 -1 -39 -18 10 -10 17 -23 17 -29 0 -14 -54 -33 -94 -33 l-31 -1 33
-27 c18 -15 32 -31 32 -36 0 -4 -20 -6 -45 -4 -25 2 -45 1 -45 -3 0 -13 47
-49 55 -42 4 5 6 3 2 -2 -3 -6 -26 -21 -51 -34 -25 -12 -46 -26 -46 -30 0 -4
11 -13 25 -19 33 -15 32 -31 -10 -85 -19 -25 -35 -48 -35 -51 0 -3 14 -6 30
-6 37 0 37 -6 3 -42 -18 -19 -22 -28 -12 -28 31 0 41 -15 28 -43 -7 -15 -18
-27 -26 -27 -7 0 -13 -4 -13 -10 0 -5 6 -10 13 -10 21 0 59 -46 55 -67 -2 -10
-10 -17 -17 -15 -14 3 2 -32 19 -43 6 -3 10 -16 11 -28 1 -13 7 -2 16 26 8 27
20 47 29 47 8 0 14 5 14 10 0 6 4 10 9 10 6 0 9 -9 8 -20 -1 -11 -5 -20 -10
-20 -10 0 24 -48 39 -54 6 -2 19 10 29 26 10 17 13 28 6 24 -9 -6 -10 0 -5 20
5 18 3 25 -4 20 -6 -3 -9 -21 -7 -39 2 -17 1 -26 -2 -19 -2 6 -9 10 -13 7 -5
-3 -12 0 -16 6 -4 8 -3 9 4 5 10 -6 17 6 10 18 -2 2 4 12 12 22 18 23 40 61
40 70 0 4 -10 -1 -21 -12 l-21 -19 21 35 c27 45 29 69 4 49 -16 -13 -17 -12
-4 3 7 10 17 16 21 13 4 -2 20 14 36 35 16 22 32 40 37 40 16 0 5 24 -24 51
-17 16 -25 29 -18 29 12 0 12 2 0 9 -11 7 -9 13 8 30 11 11 18 21 15 21 -4 0
-1 7 6 15 6 8 8 20 4 26 -5 8 -3 9 6 4 10 -6 12 -4 7 8 -7 17 10 26 63 33 19
2 39 10 45 16 7 8 6 9 -4 3 -10 -6 -12 -4 -7 4 6 8 2 11 -10 9 -13 -2 -18 2
-16 13 1 11 -22 33 -70 64 -88 57 -49 54 43 -3 40 -25 57 -42 54 -52 -4 -8 -3
-11 1 -7 4 4 13 2 20 -4 15 -12 8 -35 -18 -63 -9 -10 -15 -23 -12 -28 3 -4 1
-8 -4 -8 -13 0 -23 -26 -31 -88 -5 -36 -4 -51 3 -49 6 3 10 10 8 17 -7 29 9
66 29 67 14 1 19 -3 15 -15 -3 -9 -2 -30 3 -47 9 -28 9 -27 10 18 1 26 5 47
10 47 6 0 8 8 6 19 -2 11 8 30 23 44 l27 26 0 -84 c0 -96 18 -135 28 -60 8 54
26 92 68 140 33 38 26 44 -21 20 -17 -9 -30 -13 -30 -11 0 3 14 13 31 21 37
20 64 13 54 -13 -25 -60 -34 -118 -24 -157 11 -43 44 -94 54 -84 3 4 -2 14
-11 24 -19 19 -27 62 -13 71 5 3 9 -5 10 -18 0 -22 1 -22 8 -3 l8 20 6 -20 c4
-11 18 -33 32 -49 35 -40 34 -91 -2 -129 -25 -26 -25 -28 -6 -18 33 17 51 60
48 109 -3 34 3 53 25 89 16 25 34 70 40 100 l12 54 29 -37 c23 -29 29 -47 29
-84 0 -26 -3 -50 -7 -54 -5 -4 -8 -11 -8 -14 -1 -4 -6 -17 -14 -30 -14 -25 -6
-132 10 -132 5 0 9 4 9 8 0 5 39 9 87 10 97 2 128 12 38 12 -63 0 -66 15 -5
23 51 7 92 17 116 29 15 7 28 7 44 -2 16 -9 25 -9 33 -1 8 8 3 19 -18 41 -32
33 -21 42 13 10 25 -23 24 -17 26 -162 1 -93 -1 -105 -14 -95 -9 7 -8 4 3 -9
12 -14 17 -40 18 -85 2 -53 3 -57 8 -26 3 21 11 38 16 37 6 0 10 5 9 10 -6 58
-5 57 -14 30 -7 -22 -8 -21 -9 13 -1 23 3 36 9 32 6 -3 10 1 10 9 0 8 -4 18
-10 21 -16 10 -12 34 9 52 16 13 17 19 8 35 -10 16 -9 22 7 33 17 13 18 18 7
41 -14 32 -6 62 26 90 l25 21 -28 7 c-44 11 -56 25 -39 42 7 8 18 14 24 14 6
0 11 7 11 15 0 8 -3 14 -7 14 -43 -7 -56 20 -28 57 23 30 18 44 -15 44 -16 0
-30 3 -30 6 0 12 34 64 42 64 4 0 8 4 8 9 0 6 -16 7 -36 4 l-35 -6 16 39 16
39 -40 -40 c-49 -47 -55 -36 -8 14 25 27 27 31 7 18 -36 -25 -40 -22 -40 35
l0 52 -22 -32 c-13 -18 -38 -56 -56 -85 -19 -29 -43 -59 -54 -66 -15 -10 -18
-10 -12 0 4 7 7 40 6 73 -1 52 1 56 8 31 5 -16 7 -38 4 -47 -3 -10 -1 -18 5
-18 5 0 15 16 21 35 6 19 16 34 21 32 15 -3 40 74 33 102 -5 23 -6 22 -26 -17
-12 -22 -25 -39 -30 -36 -4 3 -8 29 -8 57 l-1 52 -16 -30 c-21 -41 -23 -42
-34 -25 -9 12 -10 12 -5 -3 3 -11 3 -24 -1 -30 -10 -17 -7 -82 5 -80 8 2 8 -6
0 -27 -13 -38 -20 -39 -13 -2 5 24 4 23 -14 -9 -19 -33 -51 -69 -51 -55 0 3 9
34 20 68 11 35 25 77 30 94 6 17 10 44 10 60 l-1 29 -14 -30 -14 -30 4 43 c2
23 0 42 -3 42 -3 0 -23 -16 -43 -36 l-36 -35 -24 38 c-13 21 -27 47 -31 57
-11 26 -18 16 -20 -29 l-1 -39 -16 24 c-9 13 -24 33 -34 44 -18 21 -18 21 -12
-4 6 -22 4 -21 -15 8 -23 34 -32 40 -29 20z m230 -112 c-16 -26 -18 -35 -9
-39 9 -4 9 -6 1 -6 -21 -2 -22 14 -1 47 11 18 22 32 25 32 2 0 -5 -15 -16 -34z
m-61 -25 c0 -12 -27 -9 -27 3 0 6 -4 20 -8 31 -6 17 -4 17 14 -4 12 -13 21
-26 21 -30z m-141 -76 c-7 -38 -12 -77 -10 -85 4 -18 -78 82 -101 124 -9 17
-17 37 -18 45 0 16 42 -39 83 -109 30 -50 34 -50 13 1 -19 48 -30 127 -16 113
6 -6 15 -33 19 -60 5 -27 9 -39 10 -27 0 12 6 25 11 28 6 3 11 25 11 48 1 28
3 34 6 17 3 -14 -1 -56 -8 -95z m65 -2 l12 -88 8 47 c4 26 11 50 17 53 5 4 9
16 10 28 0 17 4 14 14 -13 16 -42 19 -119 5 -140 -7 -11 -9 -7 -5 15 3 17 1
50 -4 75 l-9 45 -1 -40 c-1 -49 -19 -115 -31 -115 -8 0 -31 64 -44 122 -6 29
3 112 11 104 3 -3 11 -45 17 -93z m-194 24 c0 -10 7 -31 15 -46 8 -16 19 -48
24 -71 l9 -42 -25 24 c-14 12 -38 42 -53 65 -15 23 -29 41 -31 39 -2 -3 -12
14 -22 37 l-17 42 55 -60 55 -60 -16 39 c-9 22 -23 51 -32 65 l-17 26 27 -20
c15 -11 28 -28 28 -38z m-116 10 c11 -42 -15 -33 -29 10 -5 18 -3 22 8 17 8
-3 18 -15 21 -27z m432 -18 c7 -19 13 -47 13 -64 0 -26 -2 -23 -18 20 -10 28
-22 58 -26 69 -6 14 -5 18 5 14 8 -2 19 -20 26 -39z m-402 -5 c3 -8 2 -12 -4
-9 -6 3 -10 10 -10 16 0 14 7 11 14 -7z m-31 -32 c10 -10 19 -29 22 -40 2 -11
9 -30 15 -42 6 -12 10 -23 8 -26 -6 -5 -79 92 -82 108 -1 7 -5 19 -10 26 -12
20 24 0 47 -26z m-43 -24 c0 -6 -6 -5 -15 2 -8 7 -15 14 -15 16 0 2 7 1 15 -2
8 -4 15 -11 15 -16z m-104 -29 c5 -9 -1 -10 -20 -5 -15 4 -26 2 -26 -4 0 -12
-30 -13 -57 -3 -14 6 -8 9 22 14 64 10 73 10 81 -2z m881 -38 c1 -11 -7 -27
-18 -37 -10 -9 -19 -12 -19 -7 0 6 7 16 15 23 8 6 14 15 13 18 -1 10 2 22 5
22 1 0 3 -9 4 -19z m-872 -21 c3 -5 2 -10 -4 -10 -5 0 -13 5 -16 10 -3 6 -2
10 4 10 5 0 13 -4 16 -10z m710 -10 c-17 -18 -16 -20 9 -42 16 -14 31 -44 40
-78 l13 -55 13 43 c10 33 11 48 1 68 -6 14 -8 31 -5 37 5 9 4 9 -5 1 -10 -9
-10 -17 -2 -32 6 -11 11 -31 10 -44 -1 -21 -2 -20 -9 5 -5 16 -14 35 -21 43
-6 8 -10 16 -8 17 2 1 15 11 28 22 14 11 22 15 18 9 -4 -6 2 -19 13 -29 11
-10 20 -24 20 -31 0 -7 9 -29 19 -48 11 -19 17 -37 14 -40 -4 -3 -1 -6 5 -6 8
0 9 -7 2 -24 -6 -17 -5 -26 3 -30 7 -4 -1 -4 -18 -1 -19 4 -25 2 -17 -3 29
-19 -21 -35 -153 -49 -58 -6 -99 -23 -101 -41 -1 -6 -2 -22 -3 -34 -1 -19 -3
-20 -11 -8 -12 19 -13 83 -1 95 5 6 17 35 25 65 10 36 14 43 12 20 -5 -32 -4
-33 7 -11 9 19 7 35 -10 85 -20 56 -21 62 -6 76 9 8 13 10 10 4 -3 -6 3 -18
14 -27 10 -9 19 -26 19 -37 0 -12 4 -19 9 -15 13 7 21 -21 23 -79 1 -26 4 -43
6 -37 2 6 10 11 17 11 8 0 17 5 21 12 4 7 3 8 -4 4 -16 -10 -30 24 -25 61 3
18 -2 45 -11 64 -20 40 -20 45 -1 29 8 -7 15 -20 16 -29 0 -11 2 -12 6 -3 3 7
0 19 -6 26 -8 9 -5 18 10 34 11 12 23 22 26 22 3 0 -2 -9 -12 -20z m-480 -2
c5 4 5 1 1 -6 -6 -10 -11 -10 -22 -1 -8 6 -14 14 -14 16 0 3 6 0 13 -6 8 -6
18 -7 22 -3z m270 -5 c-4 -10 -9 -40 -12 -68 -2 -27 -9 -63 -14 -80 -11 -33
-59 -97 -59 -78 0 6 7 19 16 27 10 11 12 21 6 32 -7 13 -10 10 -15 -15 -9 -42
-28 -39 -52 7 -11 20 -23 39 -27 42 -4 3 2 23 13 45 10 22 16 30 13 18 -8 -32
3 -29 21 7 18 35 19 44 3 34 -7 -4 -8 -3 -4 4 4 7 2 12 -4 12 -6 0 -8 5 -4 12
6 9 9 9 12 0 3 -10 7 -10 17 -2 11 9 14 7 14 -7 -1 -23 20 -156 25 -160 4 -5
23 75 31 131 5 39 12 56 22 56 3 0 2 -8 -2 -17z m-520 -3 c25 -11 -1 -11 -35
0 -20 6 -21 8 -5 8 11 0 29 -3 40 -8z m360 -56 c-14 -27 -23 -38 -19 -24 9 34
34 83 40 77 3 -2 -7 -26 -21 -53z m585 30 c0 -3 -7 -12 -15 -20 -8 -8 -21 -25
-30 -37 -11 -16 -18 -18 -26 -10 -9 9 -9 16 -1 26 7 8 8 18 4 22 -4 5 -1 5 6
1 6 -4 12 -3 12 3 0 5 8 12 18 14 27 7 32 7 32 1z m-1055 -30 c-22 -7 -53 -13
-69 -13 -44 -1 -19 18 35 27 61 11 85 1 34 -14z m262 -24 c-6 -16 -17 -30 -25
-30 -10 0 -10 5 -1 23 10 18 27 36 36 37 1 0 -4 -13 -10 -30z m-204 13 c-7 -2
-19 -2 -25 0 -7 3 -2 5 12 5 14 0 19 -2 13 -5z m-38 -23 c25 -6 20 -8 -28 -9
-37 -1 -56 3 -52 9 7 11 36 11 80 0z m50 -30 c11 -5 14 -9 7 -9 -19 -1 -92
-50 -134 -90 -21 -19 -41 -32 -45 -28 -10 11 47 66 97 93 25 13 38 24 30 23
-8 -1 -28 0 -45 1 l-30 3 35 7 c48 10 62 10 85 0z m963 -40 c-7 -11 -17 -20
-22 -20 -5 0 -1 9 9 20 10 11 20 20 22 20 2 0 -2 -9 -9 -20z m-961 -35 c-11
-7 -25 -11 -33 -8 -8 3 -14 2 -12 -3 4 -15 -59 -77 -66 -65 -4 5 10 21 31 35
40 28 40 32 -1 16 -16 -6 -26 -6 -26 0 0 9 81 38 110 39 12 0 11 -3 -3 -14z
m1023 -9 c0 -10 -70 -44 -75 -36 -3 5 4 11 15 15 11 4 18 11 15 16 -4 5 5 9
19 9 14 0 26 -2 26 -4z m-1009 -51 c-30 -19 -66 -45 -80 -58 -60 -54 -67 -56
-42 -10 17 30 38 48 75 66 98 48 121 49 47 2z m819 -18 c0 6 9 11 20 10 18 -1
18 -11 -1 -13 -5 -1 -10 -2 -11 -4 -9 -6 -38 -7 -38 -1 0 15 14 21 22 9 5 -9
8 -10 8 -1z m-76 -12 c2 -6 -2 -12 -10 -12 -8 0 -14 4 -14 9 0 5 -5 6 -12 2
-6 -4 -8 -3 -5 3 8 13 35 12 41 -2z m-843 -83 c-11 -16 -27 -35 -36 -42 -27
-22 -18 11 12 42 35 36 50 36 24 0z"/>
<path d="M795 1640 c10 -11 20 -20 23 -20 3 0 -3 9 -13 20 -10 11 -20 20 -23
20 -3 0 3 -9 13 -20z"/>
<path d="M1373 1405 c0 -27 2 -38 4 -22 2 15 2 37 0 50 -2 12 -4 0 -4 -28z"/>
<path d="M1540 1450 c-8 -5 -12 -12 -9 -15 4 -3 12 1 19 10 14 17 11 19 -10 5z"/>
<path d="M923 1321 c7 -8 13 -9 15 -3 2 6 10 8 18 5 8 -3 14 -1 14 4 0 5 -13
9 -29 8 -24 0 -27 -3 -18 -14z"/>
<path d="M720 1240 c-52 -41 -53 -42 -40 -50 7 -4 24 -4 39 0 14 4 37 3 51 -3
14 -6 66 -11 115 -13 50 -1 109 -5 133 -8 34 -4 44 -1 52 14 26 49 4 60 -145
65 -49 2 -110 6 -135 9 -35 4 -50 1 -70 -14z m65 1 c3 -6 14 -8 24 -6 11 2 27
-5 37 -16 16 -18 16 -19 -4 -19 -12 0 -22 5 -22 11 0 8 -5 7 -16 -1 -9 -8 -14
-9 -12 -2 2 6 -6 18 -17 26 -11 8 -15 16 -8 16 6 0 14 -4 18 -9z m100 -11 c-3
-5 1 -10 10 -10 10 0 13 5 9 12 -5 7 -3 8 5 3 10 -6 9 -11 -3 -24 -14 -14 -18
-14 -26 -1 -8 13 -5 30 6 30 3 0 2 -4 -1 -10z m-131 -9 c3 -5 -6 -8 -20 -8
-19 0 -22 2 -13 8 18 11 26 11 33 0z m244 -37 c-4 -3 -12 5 -18 18 -12 22 -12
22 6 6 10 -10 15 -20 12 -24z m57 17 c3 -5 1 -12 -5 -16 -5 -3 -10 1 -10 9 0
18 6 21 15 7z"/>
<path d="M1489 1156 c-3 -3 -42 -8 -88 -11 -51 -4 -94 -13 -109 -23 -14 -9
-20 -18 -13 -20 6 -2 18 2 26 8 8 7 43 14 77 17 56 4 67 2 98 -22 l35 -26 3
27 c3 25 -18 61 -29 50z"/>
<path d="M923 1123 c15 -2 39 -2 55 0 15 2 2 4 -28 4 -30 0 -43 -2 -27 -4z"/>
<path d="M1040 1112 c6 -13 14 -21 18 -18 3 4 -2 14 -12 24 -18 16 -18 16 -6
-6z"/>
<path d="M776 1112 c-2 -4 13 -6 35 -4 21 2 39 6 39 8 0 7 -69 4 -74 -4z"/>
<path d="M1358 1113 c-10 -3 -18 -11 -18 -18 0 -7 -8 -16 -17 -18 -14 -4 -12
-5 5 -6 13 -1 22 5 22 14 0 17 25 20 35 5 3 -6 -1 -7 -9 -4 -21 8 -20 -6 2
-22 9 -7 31 -10 47 -8 23 3 26 2 10 -4 -18 -8 -16 -10 12 -14 32 -4 63 6 63
21 0 4 -21 8 -46 9 -37 0 -51 6 -68 25 -12 14 -28 22 -38 20z"/>
<path d="M780 1086 c-11 -5 -20 -13 -20 -18 0 -5 -5 -6 -11 -2 -7 4 -7 -1 1
-16 7 -13 17 -19 27 -16 8 3 27 6 41 7 l27 1 -25 7 c-23 7 -23 8 -5 13 11 4
54 7 95 8 45 0 80 6 88 13 10 10 -9 13 -93 12 -57 0 -113 -4 -125 -9z"/>
<path d="M1240 1082 c0 -10 12 -29 27 -43 20 -17 23 -18 10 -3 -9 11 -17 28
-17 37 0 9 -4 19 -10 22 -5 3 -10 -2 -10 -13z"/>
<path d="M1176 1023 c-35 -19 -33 -24 5 -11 25 8 33 8 40 -3 7 -11 9 -9 9 7 0
24 -17 26 -54 7z"/>
<path d="M494 994 c3 -8 2 -13 -3 -10 -5 3 -12 -6 -15 -20 -8 -32 -1 -44 9
-15 3 12 13 21 21 21 17 0 18 -12 2 -28 -9 -9 -7 -12 12 -12 l24 0 -22 -16
c-17 -12 -21 -21 -16 -42 8 -32 4 -28 32 -36 13 -5 22 -3 22 3 0 6 -9 11 -20
11 -16 0 -20 7 -20 31 0 24 4 30 18 27 10 -2 17 -12 16 -26 0 -12 3 -22 8 -22
17 0 7 41 -24 94 -30 51 -58 77 -44 40z"/>
<path d="M1230 959 c0 -8 7 -24 15 -35 8 -10 15 -22 15 -26 0 -13 -70 -38 -87
-31 -9 4 -14 2 -10 -3 3 -6 -5 -22 -18 -36 -23 -25 -18 -49 10 -48 11 1 55 35
55 44 0 3 -10 6 -22 6 -21 0 -21 2 7 18 27 17 30 17 34 3 3 -13 5 -12 13 4 7
17 8 16 3 -5 -2 -14 -5 -35 -5 -46 0 -14 -9 -24 -22 -29 -19 -6 -20 -8 -6 -12
19 -5 78 32 78 48 0 6 -4 8 -9 5 -5 -3 -11 1 -15 9 -3 8 -1 17 4 20 4 3 10 0
12 -7 3 -7 7 -8 10 -2 4 5 -9 38 -28 74 -19 36 -34 58 -34 49z m-66 -138 c3
-5 -1 -11 -9 -14 -9 -4 -12 -1 -8 9 6 16 10 17 17 5z"/>
<path d="M725 953 c-11 -3 -24 -9 -29 -14 -8 -7 45 3 79 16 15 5 -27 4 -50 -2z"/>
<path d="M440 920 c-8 -60 -4 -86 18 -118 45 -67 55 -117 48 -237 -4 -60 -9
-112 -12 -114 -2 -2 -22 10 -43 27 -40 32 -57 40 -46 23 9 -16 -30 -31 -81
-31 -35 0 -56 6 -81 26 -32 24 -46 21 -21 -5 29 -29 -39 -46 -102 -26 -21 7
-23 6 -12 -7 16 -19 6 -45 -20 -54 -14 -4 -29 3 -52 25 l-32 31 -2 -190 c-1
-157 1 -190 13 -190 7 0 17 -5 21 -11 4 -8 -1 -9 -15 -4 -20 6 -22 3 -19 -29
l2 -36 96 0 c89 1 93 2 70 16 -23 14 -23 14 -2 9 12 -4 22 -2 22 4 0 6 7 8 16
4 11 -4 12 -8 4 -13 -16 -10 12 -20 58 -20 34 0 35 1 16 15 -26 19 1 20 36 0
30 -17 250 -21 281 -5 13 7 19 7 19 0 0 -6 42 -10 115 -10 77 0 115 4 115 11
0 6 -7 8 -17 4 -12 -4 -15 -3 -8 4 6 6 19 12 30 14 11 1 26 6 33 11 7 4 16 5
19 2 4 -3 2 -6 -4 -6 -6 0 -13 -9 -16 -20 -5 -18 -3 -18 25 5 39 33 58 32 27
-2 -24 -26 -11 -24 26 6 18 15 19 15 7 0 -6 -9 -9 -18 -6 -22 3 -3 213 -5 467
-6 378 0 455 2 422 12 -46 14 -62 47 -23 47 13 0 29 4 37 9 9 6 29 4 54 -5 54
-19 58 -11 5 11 -37 14 -48 15 -82 4 -31 -11 -40 -11 -44 -1 -2 7 -8 10 -13 6
-5 -3 -12 2 -15 10 -3 9 -11 16 -18 16 -14 0 -46 56 -46 81 0 10 -7 19 -15 19
-11 0 -15 11 -15 35 0 21 -9 48 -22 65 -12 16 -19 32 -16 36 9 8 48 -15 48
-29 1 -32 17 -39 50 -22 29 15 39 15 91 4 32 -7 56 -15 54 -17 -2 -3 3 -18 12
-35 11 -22 14 -46 10 -84 -5 -44 -3 -53 11 -53 8 0 27 -10 40 -22 14 -13 23
-17 21 -10 -4 10 -46 41 -67 48 -1 0 3 15 9 33 10 27 9 39 -5 67 -9 19 -16 46
-16 60 0 19 -4 25 -15 20 -9 -3 -38 0 -65 6 -38 9 -56 9 -77 -1 -24 -11 -28
-10 -51 18 -43 56 -79 30 -43 -30 12 -21 18 -43 14 -57 -5 -21 -23 -31 -23
-13 0 5 -9 7 -19 4 -12 -3 -24 2 -32 14 -11 19 -14 19 -65 5 -30 -9 -56 -13
-58 -11 -3 2 2 31 11 64 8 33 19 89 23 125 5 36 25 135 44 220 49 211 48 210
31 165 -9 -22 -34 -111 -55 -198 -28 -115 -47 -170 -70 -206 -31 -47 -80 -84
-80 -60 0 8 -5 7 -15 -1 -13 -11 -15 -8 -15 19 0 19 4 30 10 26 14 -9 12 6 -6
35 l-14 25 1 -25 c3 -65 -1 -78 -26 -82 -14 -3 -25 -1 -25 6 0 7 -3 7 -8 -1
-4 -7 -28 -11 -60 -10 -28 1 -52 -1 -52 -5 0 -5 -10 -8 -22 -8 -13 -1 -34 -8
-48 -16 -24 -15 -20 -15 25 1 17 6 16 3 -5 -15 l-25 -21 35 17 c32 16 34 16
21 1 -18 -23 -6 -21 32 4 32 20 32 20 -3 -10 -33 -29 -58 -41 -46 -22 3 5 -12
8 -35 7 -22 -1 -42 1 -45 6 -3 4 0 8 7 8 7 0 10 2 7 5 -3 3 -12 3 -20 0 -13
-5 -13 -11 -4 -30 9 -19 14 -21 25 -12 12 10 13 8 9 -11 -6 -20 -4 -21 9 -11
31 26 58 13 36 -17 -5 -5 7 8 25 29 39 43 75 67 66 42 -4 -8 -10 -15 -14 -15
-4 0 -20 -17 -36 -37 -15 -20 -23 -33 -17 -30 7 4 14 3 17 -2 15 -23 -51 -17
-115 12 -60 26 -69 33 -63 51 6 20 5 20 -8 2 -12 -15 -18 -17 -37 -7 -12 7
-24 26 -28 42 -3 18 -9 26 -13 19 -5 -8 -9 -5 -13 9 -7 27 13 32 42 10 13 -11
30 -19 38 -19 11 0 11 -6 -2 -33 -14 -28 -14 -30 0 -13 8 11 15 25 15 30 0 6
4 5 9 -2 6 -10 10 -10 21 3 11 13 9 15 -9 15 -11 0 -21 5 -21 10 0 6 -7 10
-15 10 -8 0 -15 5 -15 10 0 6 17 10 38 10 25 0 32 3 23 9 -7 5 -32 7 -55 5
l-41 -4 35 13 35 14 -45 8 c-25 4 -51 7 -59 6 -7 -1 -10 2 -7 8 7 11 -91 44
-105 35 -5 -3 -6 2 -3 10 4 11 0 16 -13 16 -18 0 -50 34 -80 85 -7 11 -12 16
-13 10 0 -15 29 -55 93 -127 33 -37 58 -69 58 -73 -1 -3 8 -14 21 -25 13 -10
20 -22 15 -26 -4 -4 -13 -2 -19 4 -7 7 -20 12 -30 12 -10 0 -18 5 -18 10 0 6
-7 10 -14 10 -8 0 -27 11 -42 25 -32 30 -32 30 -64 5 -39 -31 -45 -29 -146 44
-1 1 4 33 12 71 7 39 13 96 14 128 0 60 7 69 29 38 11 -15 18 -17 42 -7 39 14
39 40 0 31 -26 -6 -32 -1 -69 54 -41 62 -38 76 11 49 20 -10 21 -10 8 5 -7 10
-24 17 -37 17 -12 0 -30 10 -40 23 -11 15 -15 16 -11 5 4 -10 2 -18 -3 -18 -5
0 -11 26 -13 58 -2 31 -5 46 -7 32z m-104 -484 c7 -1 17 -6 21 -11 4 -4 2 -5
-6 0 -10 5 -12 4 -7 -4 4 -6 11 -9 16 -6 4 3 13 -2 20 -10 15 -18 31 -10 23
11 -3 10 -8 12 -12 5 -4 -6 -12 -2 -20 10 -10 17 -10 20 1 13 18 -12 31 -12
48 0 13 9 13 9 2 -5 -11 -14 -10 -20 4 -34 15 -14 15 -18 3 -26 -8 -5 -17 -9
-20 -9 -16 0 -77 32 -104 56 -28 24 -28 25 -6 19 13 -4 30 -8 37 -9z m1129
-113 c-15 -54 -30 -100 -32 -103 -7 -7 -116 -10 -133 -3 -24 10 -34 10 -47 0
-7 -5 -13 -7 -13 -4 0 3 -16 1 -35 -3 -19 -4 -37 -4 -40 0 -7 12 5 40 17 40 6
0 8 -7 4 -15 -3 -8 -1 -15 4 -15 6 0 10 6 10 14 0 8 5 18 11 22 8 4 9 0 4 -15
-9 -30 1 -26 20 7 l16 27 -5 -30 c-6 -29 -5 -29 14 8 24 43 34 49 19 11 -5
-15 -7 -29 -4 -32 3 -3 5 0 5 6 0 7 5 12 11 12 5 0 7 -5 3 -11 -4 -8 0 -7 15
1 12 6 19 15 16 21 -4 5 -2 9 3 9 5 0 14 11 21 23 7 13 37 41 67 63 30 21 57
47 60 57 3 10 8 16 11 13 3 -3 -7 -49 -22 -103z m-625 59 c0 -15 -2 -15 -10
-2 -13 20 -13 33 0 25 6 -3 10 -14 10 -23z m23 -24 c-3 -18 -7 -35 -10 -38 -2
-3 -2 11 0 30 6 41 6 40 11 40 2 0 2 -15 -1 -32z m-708 1 c4 -11 4 -23 1 -26
-3 -4 -6 2 -6 12 0 15 -2 16 -17 4 -14 -12 -16 -12 -8 0 6 11 5 12 -6 5 -22
-13 -43 -14 -51 -1 -5 8 2 14 20 18 48 12 61 9 67 -12z m43 -18 c7 -21 11 -49
11 -62 -1 -17 -4 -14 -8 11 -4 19 -11 34 -17 33 -6 -1 -11 11 -12 28 -1 41 13
36 26 -10z m292 20 c0 -5 -13 -11 -30 -14 -18 -4 -30 -13 -30 -23 0 -8 -5 -14
-12 -12 -25 9 -18 28 19 46 37 19 53 20 53 3z m-243 -52 c4 -43 4 -43 -11 -19
-26 43 -28 50 -22 67 10 26 27 1 33 -48z m48 31 c-3 -5 0 -18 6 -28 7 -11 9
-27 6 -36 -6 -15 -9 -14 -27 4 -11 11 -20 30 -19 43 l0 22 9 -22 c5 -13 12
-23 15 -23 4 0 3 5 0 10 -7 12 0 40 10 40 4 0 4 -4 0 -10z m-220 -70 c17 -14
18 -13 12 5 -6 16 -3 15 13 -5 20 -26 21 -47 1 -42 -7 1 -10 -2 -6 -8 3 -6 10
-8 15 -5 4 3 6 -4 3 -15 -7 -26 -19 -34 -29 -19 -4 8 -3 9 4 5 22 -13 12 10
-19 44 -17 20 -24 24 -15 10 9 -13 16 -29 16 -35 0 -16 -42 57 -51 89 -12 41
0 53 20 19 10 -15 26 -35 36 -43z m425 54 l25 -15 -25 5 c-14 3 -34 6 -45 6
-17 0 -17 2 -5 10 19 12 20 12 50 -6z m127 -9 c0 -8 -4 -15 -9 -15 -10 0 -11
14 -1 23 9 10 10 9 10 -8z m710 9 c-3 -3 -12 -4 -19 -1 -8 3 -5 6 6 6 11 1 17
-2 13 -5z m-47 -8 c0 -2 -7 -7 -16 -10 -8 -3 -12 -2 -9 4 6 10 25 14 25 6z
m-1110 -16 c0 -5 -5 -10 -11 -10 -5 0 -7 5 -4 10 3 6 8 10 11 10 2 0 4 -4 4
-10z m410 0 c0 -5 -10 -14 -22 -20 -21 -10 -22 -10 -5 3 14 11 15 16 5 20 -8
4 -7 6 5 6 9 1 17 -3 17 -9z m-200 -12 c0 -7 -5 -20 -10 -28 -8 -11 -9 -9 -8
13 2 26 18 40 18 15z m374 -22 c-10 -8 -21 -12 -23 -10 -3 2 4 11 15 18 10 8
21 12 23 10 3 -2 -4 -11 -15 -18z m-124 -18 c14 -18 23 -39 22 -47 -2 -7 1
-10 7 -7 13 8 18 -2 30 -52 5 -24 5 -39 0 -36 -5 3 -9 13 -9 22 0 15 -2 15
-10 2 -7 -11 -8 -5 -4 20 4 22 2 30 -3 22 -7 -9 -12 -6 -21 13 -9 19 -9 25 1
25 14 0 -43 49 -58 49 -5 1 -3 -4 5 -9 17 -11 10 -13 -14 -4 -12 5 -13 9 -3
20 19 21 31 17 57 -18z m50 1 c15 -18 26 -38 23 -45 -6 -16 -23 -9 -23 9 0 6
-12 24 -27 39 -15 15 -21 28 -14 28 7 0 25 -14 41 -31z m159 18 c17 -7 28 -16
24 -20 -3 -4 3 -7 15 -7 16 0 20 -4 15 -17 -5 -15 -3 -16 8 -5 15 14 33 16 25
3 -6 -10 26 -21 62 -21 12 0 22 -3 22 -8 0 -8 54 -38 85 -46 11 -3 27 -1 35 4
10 6 20 4 33 -7 17 -16 18 -15 24 6 3 14 11 20 19 17 43 -18 49 -18 29 -2 -18
15 -17 16 23 13 23 -2 42 0 42 5 0 4 12 3 26 -2 35 -14 42 -12 20 5 -28 21 -1
19 31 -2 29 -19 56 -26 47 -12 -6 10 25 7 44 -4 6 -5 17 -5 22 -2 12 7 12 3 4
-19 -3 -9 -10 -16 -16 -16 -5 0 -7 4 -4 9 3 5 -2 15 -12 22 -15 12 -16 12 -4
-2 10 -13 10 -18 -1 -28 -8 -6 -17 -8 -20 -4 -4 3 -19 -4 -33 -18 -26 -24 -26
-24 -15 -1 15 28 4 28 -26 0 -13 -12 -23 -17 -23 -11 0 6 7 16 15 23 8 7 15
17 15 23 0 5 -10 2 -22 -9 -12 -10 -18 -14 -15 -8 13 22 -26 25 -48 4 -24 -22
-40 -27 -28 -7 4 6 -5 4 -21 -6 -15 -10 -34 -16 -42 -13 -8 3 -13 2 -10 -3 3
-5 -2 -15 -12 -22 -14 -11 -15 -11 -5 1 19 21 -12 53 -38 39 -11 -5 -19 -7
-19 -3 0 3 -7 1 -15 -6 -14 -12 -19 -7 -16 13 1 5 -3 6 -9 2 -6 -3 -8 -10 -5
-15 3 -4 -3 -14 -13 -21 -15 -13 -16 -12 -3 3 16 21 1 24 -31 7 -11 -6 -22 -8
-25 -5 -3 3 3 9 13 13 21 8 44 28 44 38 0 4 -7 5 -15 2 -8 -4 -17 -1 -21 4 -3
6 -17 9 -30 6 -14 -2 -21 0 -17 6 4 6 -2 8 -15 5 -14 -4 -22 -2 -22 7 0 9 -8
11 -22 8 -13 -3 -20 -2 -16 2 14 15 -25 34 -47 22 -18 -9 -19 -9 -6 7 20 24
-2 38 -38 24 -21 -7 -24 -7 -13 3 18 20 14 33 -5 18 -16 -13 -17 -12 -4 4 16
20 20 21 60 4z m-479 -38 c15 -28 5 -23 -15 7 -9 15 -12 23 -6 20 6 -4 16 -16
21 -27z m-202 -27 c12 -15 12 -14 7 6 -9 32 -1 27 34 -20 18 -25 31 -35 31
-26 0 9 -4 20 -10 23 -5 3 -10 12 -10 18 0 7 11 -6 25 -27 13 -21 29 -43 37
-48 10 -7 9 -8 -4 -4 -10 3 -18 1 -18 -5 0 -10 -62 30 -68 44 -2 4 -7 5 -12 2
-12 -7 -58 58 -52 75 4 12 7 11 16 -4 6 -10 17 -25 24 -34z m672 35 c0 -2 -10
-12 -22 -23 l-23 -19 19 23 c18 21 26 27 26 19z m795 -31 c18 4 18 4 3 -6 -10
-6 -18 -18 -18 -26 0 -8 -5 -12 -11 -9 -6 4 -8 14 -5 22 3 8 2 12 -3 9 -4 -3
-17 4 -27 15 -18 20 -18 20 12 5 16 -9 38 -13 49 -10z m-1150 -4 c-3 -3 -15
-7 -28 -9 -21 -4 -21 -3 -2 11 18 13 44 12 30 -2z m95 -4 c0 -6 -6 -5 -15 2
-8 7 -15 14 -15 16 0 2 7 1 15 -2 8 -4 15 -11 15 -16z m1009 -37 c-2 -5 -15 6
-28 27 l-23 37 27 -26 c15 -15 26 -32 24 -38z m101 29 c8 -5 11 -10 5 -10 -5
0 -17 5 -25 10 -8 5 -10 10 -5 10 6 0 17 -5 25 -10z m-128 -34 c4 -6 7 -29 6
-51 l-1 -40 -7 45 c-4 25 -8 39 -8 32 -1 -7 -7 -10 -13 -7 -6 4 -17 -1 -25
-11 -13 -17 -13 -16 -4 10 6 16 8 36 6 43 -5 11 -1 11 17 2 12 -7 25 -17 29
-23z m100 17 c10 -9 18 -28 18 -42 l-1 -26 -15 28 c-8 15 -19 27 -25 27 -6 0
-6 -7 1 -19 7 -15 7 -22 -2 -27 -7 -4 -10 -4 -6 1 4 4 4 13 -2 20 -9 11 -3 55
8 55 3 0 14 -7 24 -17z m-1169 -15 c-4 -18 -2 -20 6 -8 5 8 13 12 16 8 3 -3
-4 -16 -17 -30 -13 -13 -20 -19 -15 -14 12 16 8 31 -5 18 -7 -7 -17 -12 -22
-12 -6 0 -4 6 5 13 8 7 18 20 22 30 9 24 16 21 10 -5z m-314 -32 c-2 -2 -13 8
-23 22 l-19 27 24 -22 c12 -12 21 -24 18 -27z m181 -40 c0 -6 -16 5 -35 24
-19 19 -35 38 -35 44 0 13 69 -55 70 -68z m168 34 c-7 -11 -19 -22 -28 -25 -8
-4 -4 5 9 19 29 31 36 33 19 6z m234 -22 c-7 -7 -12 -8 -12 -2 0 14 12 26 19
19 2 -3 -1 -11 -7 -17z m397 -4 c-6 -7 -15 -11 -21 -8 -5 3 -4 12 3 20 6 7 15
11 21 8 5 -3 4 -12 -3 -20z m601 -4 c10 0 10 -3 0 -15 -16 -19 -34 -20 -27 -1
3 8 -1 17 -9 20 -8 3 -14 11 -14 17 0 8 7 6 18 -4 10 -10 24 -17 32 -17z
m-1210 2 c-8 -3 -22 -10 -30 -16 -8 -6 -7 -1 4 11 10 13 23 20 29 16 7 -4 6
-8 -3 -11z m-429 -13 c-14 -6 -28 -6 -33 -1 -5 5 5 9 24 10 31 0 31 -1 9 -9z
m493 1 c-23 -9 -39 -37 -23 -42 5 -2 0 -9 -11 -16 -25 -15 -25 -6 0 36 11 17
28 32 37 31 15 0 14 -2 -3 -9z m176 7 c0 -2 -10 -12 -21 -23 -22 -19 -22 -19
-8 4 12 19 29 30 29 19z m5 -37 c-16 -16 -31 -27 -34 -24 -5 5 47 54 57 54 3
0 -7 -13 -23 -30z m585 16 c0 -2 -8 -10 -17 -17 -16 -13 -17 -12 -4 4 13 16
21 21 21 13z m-565 -36 c-10 -11 -23 -20 -28 -20 -6 0 0 11 13 25 27 29 42 25
15 -5z m570 0 c-10 -11 -21 -18 -23 -15 -3 3 3 12 14 20 27 20 30 18 9 -5z"/>
<path d="M1498 918 c-28 -10 -35 -22 -20 -32 4 -2 9 -23 10 -45 3 -48 -22
-103 -43 -95 -8 3 -40 -6 -72 -21 -32 -14 -78 -28 -103 -31 -70 -9 -185 -32
-211 -44 -22 -10 -22 -10 6 -4 94 19 149 27 225 34 47 4 74 8 60 9 -23 2 -23
3 -5 10 11 5 24 6 29 3 5 -3 6 0 3 5 -8 12 24 23 66 23 27 0 36 -13 17 -25 -5
-3 -10 -11 -10 -17 0 -7 4 -7 13 0 7 6 18 39 25 74 23 114 33 140 53 145 10 3
19 9 19 14 0 11 -27 10 -62 -3z"/>
<path d="M576 824 c-10 -26 -7 -51 9 -64 9 -8 15 -9 15 -2 0 6 -5 14 -11 17
-6 4 -7 19 -4 36 7 31 1 39 -9 13z"/>
<path d="M785 810 c-12 -4 -27 -15 -35 -25 -10 -12 -5 -11 23 5 20 12 37 24
37 26 0 5 0 5 -25 -6z"/>
<path d="M1228 713 c7 -3 16 -2 19 1 4 3 -2 6 -13 5 -11 0 -14 -3 -6 -6z"/>
<path d="M839 689 c-23 -19 -23 -20 -2 -10 12 6 25 16 28 21 10 16 -1 12 -26
-11z"/>
<path d="M1393 683 c9 -2 23 -2 30 0 6 3 -1 5 -18 5 -16 0 -22 -2 -12 -5z"/>
<path d="M631 640 c0 -8 4 -24 9 -35 5 -13 9 -14 9 -5 0 8 -4 24 -9 35 -5 13
-9 14 -9 5z"/>
<path d="M968 623 c7 -3 16 -2 19 1 4 3 -2 6 -13 5 -11 0 -14 -3 -6 -6z"/>
<path d="M1208 618 c-32 -6 -59 -16 -62 -24 -3 -8 1 -14 10 -14 9 0 12 5 8 13
-6 9 -5 9 8 0 8 -8 39 -12 72 -12 46 1 54 4 45 15 -14 16 -9 17 25 5 18 -8 28
-6 37 5 10 12 9 13 -4 9 -8 -4 -18 -2 -22 4 -7 13 -38 12 -117 -1z m42 -12 c0
-2 -7 -7 -16 -10 -8 -3 -12 -2 -9 4 6 10 25 14 25 6z m-43 -12 c-3 -3 -12 -4
-19 -1 -8 3 -5 6 6 6 11 1 17 -2 13 -5z"/>
<path d="M593 485 c0 -22 2 -30 4 -17 2 12 2 30 0 40 -3 9 -5 -1 -4 -23z"/>
<path d="M1205 419 c-15 -7 -13 -8 12 -3 25 4 32 2 35 -13 3 -15 5 -15 10 5 5
18 2 22 -15 21 -12 0 -31 -5 -42 -10z"/>
<path d="M1065 339 c-22 -10 -34 -19 -27 -19 15 0 72 28 72 35 0 6 3 7 -45
-16z"/>
<path d="M1764 269 c-3 -6 -2 -15 2 -19 12 -12 38 5 30 19 -9 14 -23 14 -32 0z"/>
<path d="M1727 224 c-8 -9 12 -61 31 -76 14 -11 14 -10 -1 12 -9 13 -17 31
-17 40 0 13 2 13 10 0 5 -8 12 -11 16 -8 10 11 44 -10 44 -27 0 -8 8 -19 18
-25 14 -9 10 -10 -18 -6 -31 4 -33 4 -12 -6 15 -8 21 -17 17 -27 -4 -9 3 -6
16 7 19 21 20 27 8 48 -7 13 -32 35 -55 49 -46 27 -48 28 -57 19z"/>
<path d="M1866 213 c-9 -9 -7 -33 3 -33 12 0 22 28 12 34 -5 3 -11 3 -15 -1z"/>
</g>
</svg>
